<svg version="1.1" id="Layer_1" xmlns="http://www.w3.org/2000/svg" xmlns:xlink="http://www.w3.org/1999/xlink" x="0px" y="0px"
	 viewBox="0 0 512 512" style="enable-background:new 0 0 512 512;" xml:space="preserve">
<g>
	<path style="fill:#566955;" d="M239.951,72.916c-4.662,0-8.44,3.778-8.44,8.44v28.132h16.879V81.355
		C248.391,76.693,244.613,72.916,239.951,72.916z"/>
	<path style="fill:#566955;" d="M272.049,72.916c-4.662,0-8.44,3.778-8.44,8.44v28.132h16.879V81.355
		C280.488,76.693,276.71,72.916,272.049,72.916z"/>
</g>
<path style="fill:#62B3B1;" d="M337.898,57.907v40.33h-33.758v-40.33c0-5.683-4.625-10.308-10.307-10.308h-75.663
	c-5.683,0-10.308,4.625-10.308,10.308v40.33h-33.758v-40.33c0-24.295,19.771-44.066,44.066-44.066h75.663
	C318.126,13.841,337.898,33.612,337.898,57.907z"/>
<path style="fill:#3F993A;" d="M465.357,98.236H46.643C20.885,98.236,0,119.11,0,144.879v353.28h33.758L256,475.654l222.242,22.505
	H512v-353.28C512,119.11,491.115,98.236,465.357,98.236z"/>
<path style="fill:#62B3B1;" d="M478.242,144.879v353.28H33.758v-353.28c0-7.112,5.784-12.884,12.884-12.884h418.715
	C472.458,131.995,478.242,137.767,478.242,144.879z"/>
</svg>